<svg width="44" height="44" viewBox="0 0 44 44" fill="none" xmlns="http://www.w3.org/2000/svg">
<path d="M13.2727 3.66669H9.78935C5.77435 3.66669 3.66602 5.77502 3.66602 9.77169V13.255C3.66602 17.2517 5.77435 19.36 9.77102 19.36H13.2543C17.251 19.36 19.3594 17.2517 19.3594 13.255V9.77169C19.3777 5.77502 17.2694 3.66669 13.2727 3.66669Z" fill="black"/>
<path d="M34.229 3.66669H30.7456C26.749 3.66669 24.6406 5.77502 24.6406 9.77169V13.255C24.6406 17.2517 26.749 19.36 30.7456 19.36H34.229C38.2256 19.36 40.334 17.2517 40.334 13.255V9.77169C40.334 5.77502 38.2256 3.66669 34.229 3.66669Z" fill="#8B0337"/>
<path d="M34.229 24.6216H30.7456C26.749 24.6216 24.6406 26.73 24.6406 30.7266V34.21C24.6406 38.2066 26.749 40.315 30.7456 40.315H34.229C38.2256 40.315 40.334 38.2066 40.334 34.21V30.7266C40.334 26.73 38.2256 24.6216 34.229 24.6216Z" fill="black"/>
<path d="M13.2727 24.6216H9.78935C5.77435 24.6216 3.66602 26.73 3.66602 30.7266V34.21C3.66602 38.225 5.77435 40.3333 9.77102 40.3333H13.2543C17.251 40.3333 19.3594 38.225 19.3594 34.2283V30.745C19.3777 26.73 17.2694 24.6216 13.2727 24.6216Z" fill="#038B7F"/>
</svg>
