<svg width="17" height="14" viewBox="0 0 17 14" fill="none" xmlns="http://www.w3.org/2000/svg">
<path d="M14.6777 4.08325C15.3027 3.6145 15.8652 3.052 16.3027 2.39575C15.7402 2.64575 15.084 2.83325 14.4277 2.89575C15.1152 2.4895 15.6152 1.8645 15.8652 1.08325C15.2402 1.45825 14.5215 1.7395 13.8027 1.89575C13.1777 1.2395 12.334 0.864502 11.3965 0.864502C9.58398 0.864502 8.11523 2.33325 8.11523 4.14575C8.11523 4.39575 8.14648 4.64575 8.20898 4.89575C5.49023 4.7395 3.05273 3.427 1.42773 1.45825C1.14648 1.927 0.990234 2.4895 0.990234 3.1145C0.990234 4.2395 1.55273 5.2395 2.45898 5.83325C1.92773 5.802 1.39648 5.677 0.958984 5.427V5.45825C0.958984 7.052 2.08398 8.3645 3.58398 8.677C3.33398 8.7395 3.02148 8.802 2.74023 8.802C2.52148 8.802 2.33398 8.77075 2.11523 8.7395C2.52148 10.052 3.74023 10.9895 5.17773 11.0208C4.05273 11.8958 2.64648 12.427 1.11523 12.427C0.833984 12.427 0.583984 12.3958 0.333984 12.3645C1.77148 13.302 3.49023 13.8333 5.36523 13.8333C11.3965 13.8333 14.6777 8.8645 14.6777 4.52075C14.6777 4.3645 14.6777 4.2395 14.6777 4.08325Z" fill="#110F14"/>
</svg>
