<svg width="15" height="15" viewBox="0 0 15 15" fill="none" xmlns="http://www.w3.org/2000/svg">
<path d="M13.334 0.333252H1.30273C0.771484 0.333252 0.333984 0.802002 0.333984 1.3645V13.3333C0.333984 13.8958 0.771484 14.3333 1.30273 14.3333H13.334C13.8652 14.3333 14.334 13.8958 14.334 13.3333V1.3645C14.334 0.802002 13.8652 0.333252 13.334 0.333252ZM4.55273 12.3333H2.49023V5.677H4.55273V12.3333ZM3.52148 4.7395C2.83398 4.7395 2.30273 4.20825 2.30273 3.552C2.30273 2.89575 2.83398 2.33325 3.52148 2.33325C4.17773 2.33325 4.70898 2.89575 4.70898 3.552C4.70898 4.20825 4.17773 4.7395 3.52148 4.7395ZM12.334 12.3333H10.2402V9.08325C10.2402 8.33325 10.2402 7.33325 9.17773 7.33325C8.08398 7.33325 7.92773 8.177 7.92773 9.052V12.3333H5.86523V5.677H7.83398V6.58325H7.86523C8.14648 6.052 8.83398 5.4895 9.83398 5.4895C11.9277 5.4895 12.334 6.89575 12.334 8.677V12.3333Z" fill="#110F14"/>
</svg>
