<svg width="15" height="15" viewBox="0 0 15 15" fill="none" xmlns="http://www.w3.org/2000/svg">
<path d="M7.33398 3.7395C5.33398 3.7395 3.74023 5.3645 3.74023 7.33325C3.74023 9.33325 5.33398 10.927 7.33398 10.927C9.30273 10.927 10.9277 9.33325 10.9277 7.33325C10.9277 5.3645 9.30273 3.7395 7.33398 3.7395ZM7.33398 9.677C6.05273 9.677 4.99023 8.64575 4.99023 7.33325C4.99023 6.052 6.02148 5.02075 7.33398 5.02075C8.61523 5.02075 9.64648 6.052 9.64648 7.33325C9.64648 8.64575 8.61523 9.677 7.33398 9.677ZM11.8965 3.6145C11.8965 3.14575 11.5215 2.77075 11.0527 2.77075C10.584 2.77075 10.209 3.14575 10.209 3.6145C10.209 4.08325 10.584 4.45825 11.0527 4.45825C11.5215 4.45825 11.8965 4.08325 11.8965 3.6145ZM14.2715 4.45825C14.209 3.33325 13.959 2.33325 13.1465 1.52075C12.334 0.708252 11.334 0.458252 10.209 0.395752C9.05273 0.333252 5.58398 0.333252 4.42773 0.395752C3.30273 0.458252 2.33398 0.708252 1.49023 1.52075C0.677734 2.33325 0.427734 3.33325 0.365234 4.45825C0.302734 5.6145 0.302734 9.08325 0.365234 10.2395C0.427734 11.3645 0.677734 12.3333 1.49023 13.177C2.33398 13.9895 3.30273 14.2395 4.42773 14.302C5.58398 14.3645 9.05273 14.3645 10.209 14.302C11.334 14.2395 12.334 13.9895 13.1465 13.177C13.959 12.3333 14.209 11.3645 14.2715 10.2395C14.334 9.08325 14.334 5.6145 14.2715 4.45825ZM12.7715 11.4583C12.5527 12.0833 12.0527 12.552 11.459 12.802C10.5215 13.177 8.33398 13.0833 7.33398 13.0833C6.30273 13.0833 4.11523 13.177 3.20898 12.802C2.58398 12.552 2.11523 12.0833 1.86523 11.4583C1.49023 10.552 1.58398 8.3645 1.58398 7.33325C1.58398 6.33325 1.49023 4.14575 1.86523 3.20825C2.11523 2.6145 2.58398 2.14575 3.20898 1.89575C4.11523 1.52075 6.30273 1.6145 7.33398 1.6145C8.33398 1.6145 10.5215 1.52075 11.459 1.89575C12.0527 2.1145 12.5215 2.6145 12.7715 3.20825C13.1465 4.14575 13.0527 6.33325 13.0527 7.33325C13.0527 8.3645 13.1465 10.552 12.7715 11.4583Z" fill="#110F14"/>
</svg>
