<svg width="44" height="44" viewBox="0 0 44 44" fill="none" xmlns="http://www.w3.org/2000/svg">
<path d="M38.9217 13.97H28.765C28.0683 13.97 27.5 13.4016 27.5 12.6866C27.5 11.99 28.0683 11.4216 28.765 11.4216H38.9217C39.6183 11.4216 40.1867 11.99 40.1867 12.6866C40.1867 13.4016 39.6183 13.97 38.9217 13.97Z" fill="black"/>
<path d="M11.8425 13.97H5.0775C4.38083 13.97 3.8125 13.4017 3.8125 12.705C3.8125 12.0083 4.38083 11.44 5.0775 11.44H11.8425C12.5392 11.44 13.1075 12.0083 13.1075 12.705C13.1075 13.4017 12.5392 13.97 11.8425 13.97Z" fill="black"/>
<path d="M18.6085 19.8733C22.5776 19.8733 25.7952 16.6558 25.7952 12.6867C25.7952 8.71758 22.5776 5.5 18.6085 5.5C14.6395 5.5 11.4219 8.71758 11.4219 12.6867C11.4219 16.6558 14.6395 19.8733 18.6085 19.8733Z" fill="#038B7F"/>
<path d="M38.9226 32.5783H32.1576C31.4609 32.5783 30.8926 32.01 30.8926 31.3133C30.8926 30.6167 31.4609 30.0483 32.1576 30.0483H38.9226C39.6192 30.0483 40.1876 30.6167 40.1876 31.3133C40.1876 32.01 39.6192 32.5783 38.9226 32.5783Z" fill="#038B7F"/>
<path d="M15.2342 32.5783H5.0775C4.38083 32.5783 3.8125 32.01 3.8125 31.3133C3.8125 30.6167 4.38083 30.0483 5.0775 30.0483H15.2342C15.9308 30.0483 16.4992 30.6167 16.4992 31.3133C16.4992 32.01 15.9308 32.5783 15.2342 32.5783Z" fill="#038B7F"/>
<path d="M25.3917 38.5C29.3608 38.5 32.5784 35.2824 32.5784 31.3133C32.5784 27.3442 29.3608 24.1266 25.3917 24.1266C21.4227 24.1266 18.2051 27.3442 18.2051 31.3133C18.2051 35.2824 21.4227 38.5 25.3917 38.5Z" fill="black"/>
</svg>
